<svg width="1363" height="163" viewBox="0 0 1363 163" fill="none" xmlns="http://www.w3.org/2000/svg">
<path d="M0 15C0 6.71573 6.71573 0 15 0H37V163H15C6.71573 163 0 156.284 0 148V15Z" fill="#424242"/>
<rect width="1097" height="163" transform="translate(37)" fill="#F0F0F0"/>
<path d="M101.906 53.9219L94.3945 51.2383V48.0859L104.602 52.375V54.6367L101.906 53.9219ZM94.3945 56.1719L101.918 53.4297L104.602 52.7852V55.0352L94.3945 59.3242V56.1719ZM119.543 54.918H115.195V52.1758H119.543C120.215 52.1758 120.762 52.0664 121.184 51.8477C121.605 51.6211 121.914 51.3086 122.109 50.9102C122.305 50.5117 122.402 50.0625 122.402 49.5625C122.402 49.0547 122.305 48.582 122.109 48.1445C121.914 47.707 121.605 47.3555 121.184 47.0898C120.762 46.8242 120.215 46.6914 119.543 46.6914H116.414V61H112.898V43.9375H119.543C120.879 43.9375 122.023 44.1797 122.977 44.6641C123.938 45.1406 124.672 45.8008 125.18 46.6445C125.688 47.4883 125.941 48.4531 125.941 49.5391C125.941 50.6406 125.688 51.5938 125.18 52.3984C124.672 53.2031 123.938 53.8242 122.977 54.2617C122.023 54.6992 120.879 54.918 119.543 54.918ZM127.453 54.7891V54.543C127.453 53.6133 127.586 52.7578 127.852 51.9766C128.117 51.1875 128.504 50.5039 129.012 49.9258C129.52 49.3477 130.145 48.8984 130.887 48.5781C131.629 48.25 132.48 48.0859 133.441 48.0859C134.402 48.0859 135.258 48.25 136.008 48.5781C136.758 48.8984 137.387 49.3477 137.895 49.9258C138.41 50.5039 138.801 51.1875 139.066 51.9766C139.332 52.7578 139.465 53.6133 139.465 54.543V54.7891C139.465 55.7109 139.332 56.5664 139.066 57.3555C138.801 58.1367 138.41 58.8203 137.895 59.4062C137.387 59.9844 136.762 60.4336 136.02 60.7539C135.277 61.0742 134.426 61.2344 133.465 61.2344C132.504 61.2344 131.648 61.0742 130.898 60.7539C130.156 60.4336 129.527 59.9844 129.012 59.4062C128.504 58.8203 128.117 58.1367 127.852 57.3555C127.586 56.5664 127.453 55.7109 127.453 54.7891ZM130.828 54.543V54.7891C130.828 55.3203 130.875 55.8164 130.969 56.2773C131.062 56.7383 131.211 57.1445 131.414 57.4961C131.625 57.8398 131.898 58.1094 132.234 58.3047C132.57 58.5 132.98 58.5977 133.465 58.5977C133.934 58.5977 134.336 58.5 134.672 58.3047C135.008 58.1094 135.277 57.8398 135.48 57.4961C135.684 57.1445 135.832 56.7383 135.926 56.2773C136.027 55.8164 136.078 55.3203 136.078 54.7891V54.543C136.078 54.0273 136.027 53.543 135.926 53.0898C135.832 52.6289 135.68 52.2227 135.469 51.8711C135.266 51.5117 134.996 51.2305 134.66 51.0273C134.324 50.8242 133.918 50.7227 133.441 50.7227C132.965 50.7227 132.559 50.8242 132.223 51.0273C131.895 51.2305 131.625 51.5117 131.414 51.8711C131.211 52.2227 131.062 52.6289 130.969 53.0898C130.875 53.543 130.828 54.0273 130.828 54.543ZM145.16 57.7188L147.797 48.3203H149.941L149.25 52.0117L146.613 61H144.82L145.16 57.7188ZM143.824 48.3203L145.711 57.707L145.887 61H143.777L140.566 48.3203H143.824ZM152.355 57.5547L154.195 48.3203H157.465L154.254 61H152.156L152.355 57.5547ZM150.234 48.3203L152.859 57.6484L153.223 61H151.418L148.781 52.0234L148.113 48.3203H150.234ZM165 61.2344C164.016 61.2344 163.133 61.0781 162.352 60.7656C161.57 60.4453 160.906 60.0039 160.359 59.4414C159.82 58.8789 159.406 58.2266 159.117 57.4844C158.828 56.7344 158.684 55.9375 158.684 55.0938V54.625C158.684 53.6641 158.82 52.7852 159.094 51.9883C159.367 51.1914 159.758 50.5 160.266 49.9141C160.781 49.3281 161.406 48.8789 162.141 48.5664C162.875 48.2461 163.703 48.0859 164.625 48.0859C165.523 48.0859 166.32 48.2344 167.016 48.5312C167.711 48.8281 168.293 49.25 168.762 49.7969C169.238 50.3438 169.598 51 169.84 51.7656C170.082 52.5234 170.203 53.3672 170.203 54.2969V55.7031H160.125V53.4531H166.887V53.1953C166.887 52.7266 166.801 52.3086 166.629 51.9414C166.465 51.5664 166.215 51.2695 165.879 51.0508C165.543 50.832 165.113 50.7227 164.59 50.7227C164.145 50.7227 163.762 50.8203 163.441 51.0156C163.121 51.2109 162.859 51.4844 162.656 51.8359C162.461 52.1875 162.312 52.6016 162.211 53.0781C162.117 53.5469 162.07 54.0625 162.07 54.625V55.0938C162.07 55.6016 162.141 56.0703 162.281 56.5C162.43 56.9297 162.637 57.3008 162.902 57.6133C163.176 57.9258 163.504 58.168 163.887 58.3398C164.277 58.5117 164.719 58.5977 165.211 58.5977C165.82 58.5977 166.387 58.4805 166.91 58.2461C167.441 58.0039 167.898 57.6406 168.281 57.1562L169.922 58.9375C169.656 59.3203 169.293 59.6875 168.832 60.0391C168.379 60.3906 167.832 60.6797 167.191 60.9062C166.551 61.125 165.82 61.2344 165 61.2344ZM175.5 51.0859V61H172.125V48.3203H175.301L175.5 51.0859ZM179.32 48.2383L179.262 51.3672C179.098 51.3438 178.898 51.3242 178.664 51.3086C178.438 51.2852 178.23 51.2734 178.043 51.2734C177.566 51.2734 177.152 51.3359 176.801 51.4609C176.457 51.5781 176.168 51.7539 175.934 51.9883C175.707 52.2227 175.535 52.5078 175.418 52.8438C175.309 53.1797 175.246 53.5625 175.23 53.9922L174.551 53.7812C174.551 52.9609 174.633 52.207 174.797 51.5195C174.961 50.8242 175.199 50.2188 175.512 49.7031C175.832 49.1875 176.223 48.7891 176.684 48.5078C177.145 48.2266 177.672 48.0859 178.266 48.0859C178.453 48.0859 178.645 48.1016 178.84 48.1328C179.035 48.1562 179.195 48.1914 179.32 48.2383ZM192.34 61H188.625L188.648 58.2578H192.34C193.262 58.2578 194.039 58.0508 194.672 57.6367C195.305 57.2148 195.781 56.6016 196.102 55.7969C196.43 54.9922 196.594 54.0195 196.594 52.8789V52.0469C196.594 51.1719 196.5 50.4023 196.312 49.7383C196.133 49.0742 195.863 48.5156 195.504 48.0625C195.145 47.6094 194.703 47.2695 194.18 47.043C193.656 46.8086 193.055 46.6914 192.375 46.6914H188.555V43.9375H192.375C193.516 43.9375 194.559 44.1328 195.504 44.5234C196.457 44.9062 197.281 45.457 197.977 46.1758C198.672 46.8945 199.207 47.7539 199.582 48.7539C199.965 49.7461 200.156 50.8516 200.156 52.0703V52.8789C200.156 54.0898 199.965 55.1953 199.582 56.1953C199.207 57.1953 198.672 58.0547 197.977 58.7734C197.289 59.4844 196.465 60.0352 195.504 60.4258C194.551 60.8086 193.496 61 192.34 61ZM190.617 43.9375V61H187.102V43.9375H190.617ZM201.961 54.7891V54.543C201.961 53.6133 202.094 52.7578 202.359 51.9766C202.625 51.1875 203.012 50.5039 203.52 49.9258C204.027 49.3477 204.652 48.8984 205.395 48.5781C206.137 48.25 206.988 48.0859 207.949 48.0859C208.91 48.0859 209.766 48.25 210.516 48.5781C211.266 48.8984 211.895 49.3477 212.402 49.9258C212.918 50.5039 213.309 51.1875 213.574 51.9766C213.84 52.7578 213.973 53.6133 213.973 54.543V54.7891C213.973 55.7109 213.84 56.5664 213.574 57.3555C213.309 58.1367 212.918 58.8203 212.402 59.4062C211.895 59.9844 211.27 60.4336 210.527 60.7539C209.785 61.0742 208.934 61.2344 207.973 61.2344C207.012 61.2344 206.156 61.0742 205.406 60.7539C204.664 60.4336 204.035 59.9844 203.52 59.4062C203.012 58.8203 202.625 58.1367 202.359 57.3555C202.094 56.5664 201.961 55.7109 201.961 54.7891ZM205.336 54.543V54.7891C205.336 55.3203 205.383 55.8164 205.477 56.2773C205.57 56.7383 205.719 57.1445 205.922 57.4961C206.133 57.8398 206.406 58.1094 206.742 58.3047C207.078 58.5 207.488 58.5977 207.973 58.5977C208.441 58.5977 208.844 58.5 209.18 58.3047C209.516 58.1094 209.785 57.8398 209.988 57.4961C210.191 57.1445 210.34 56.7383 210.434 56.2773C210.535 55.8164 210.586 55.3203 210.586 54.7891V54.543C210.586 54.0273 210.535 53.543 210.434 53.0898C210.34 52.6289 210.188 52.2227 209.977 51.8711C209.773 51.5117 209.504 51.2305 209.168 51.0273C208.832 50.8242 208.426 50.7227 207.949 50.7227C207.473 50.7227 207.066 50.8242 206.73 51.0273C206.402 51.2305 206.133 51.5117 205.922 51.8711C205.719 52.2227 205.57 52.6289 205.477 53.0898C205.383 53.543 205.336 54.0273 205.336 54.543ZM219.668 57.7188L222.305 48.3203H224.449L223.758 52.0117L221.121 61H219.328L219.668 57.7188ZM218.332 48.3203L220.219 57.707L220.395 61H218.285L215.074 48.3203H218.332ZM226.863 57.5547L228.703 48.3203H231.973L228.762 61H226.664L226.863 57.5547ZM224.742 48.3203L227.367 57.6484L227.73 61H225.926L223.289 52.0234L222.621 48.3203H224.742ZM236.977 51.0273V61H233.602V48.3203H236.766L236.977 51.0273ZM236.484 54.2148H235.57C235.57 53.2773 235.691 52.4336 235.934 51.6836C236.176 50.9258 236.516 50.2812 236.953 49.75C237.391 49.2109 237.91 48.8008 238.512 48.5195C239.121 48.2305 239.801 48.0859 240.551 48.0859C241.145 48.0859 241.688 48.1719 242.18 48.3438C242.672 48.5156 243.094 48.7891 243.445 49.1641C243.805 49.5391 244.078 50.0352 244.266 50.6523C244.461 51.2695 244.559 52.0234 244.559 52.9141V61H241.16V52.9023C241.16 52.3398 241.082 51.9023 240.926 51.5898C240.77 51.2773 240.539 51.0586 240.234 50.9336C239.938 50.8008 239.57 50.7344 239.133 50.7344C238.68 50.7344 238.285 50.8242 237.949 51.0039C237.621 51.1836 237.348 51.4336 237.129 51.7539C236.918 52.0664 236.758 52.4336 236.648 52.8555C236.539 53.2773 236.484 53.7305 236.484 54.2148Z" fill="#888888"/>
<path d="M114.117 84.875H122.344V107.164C122.344 109.82 121.789 112.07 120.68 113.914C119.57 115.742 118.016 117.125 116.016 118.062C114.016 119 111.664 119.469 108.961 119.469C106.289 119.469 103.938 119 101.906 118.062C99.8906 117.125 98.3125 115.742 97.1719 113.914C96.0469 112.07 95.4844 109.82 95.4844 107.164V84.875H103.734V107.164C103.734 108.57 103.938 109.719 104.344 110.609C104.75 111.484 105.344 112.125 106.125 112.531C106.906 112.938 107.852 113.141 108.961 113.141C110.086 113.141 111.031 112.938 111.797 112.531C112.562 112.125 113.141 111.484 113.531 110.609C113.922 109.719 114.117 108.57 114.117 107.164V84.875ZM136.266 84.875V119H128.062V84.875H136.266ZM172.523 84.875H180.75V107.164C180.75 109.82 180.195 112.07 179.086 113.914C177.977 115.742 176.422 117.125 174.422 118.062C172.422 119 170.07 119.469 167.367 119.469C164.695 119.469 162.344 119 160.312 118.062C158.297 117.125 156.719 115.742 155.578 113.914C154.453 112.07 153.891 109.82 153.891 107.164V84.875H162.141V107.164C162.141 108.57 162.344 109.719 162.75 110.609C163.156 111.484 163.75 112.125 164.531 112.531C165.312 112.938 166.258 113.141 167.367 113.141C168.492 113.141 169.438 112.938 170.203 112.531C170.969 112.125 171.547 111.484 171.938 110.609C172.328 109.719 172.523 108.57 172.523 107.164V84.875ZM193.078 84.875L198.656 96.2188L204.234 84.875H213.609L204.094 101.797L213.867 119H204.398L198.656 107.445L192.914 119H183.422L193.219 101.797L183.68 84.875H193.078Z" fill="black"/>
<path d="M1134 0H1348C1356.28 0 1363 6.71573 1363 15V148C1363 156.284 1356.28 163 1348 163H1134V0Z" fill="#0D5254"/>
<path d="M1248.5 111.917C1244.51 111.917 1240.55 111.13 1236.86 109.601C1233.17 108.073 1229.82 105.832 1226.99 103.008C1221.29 97.3036 1218.08 89.567 1218.08 81.5C1218.08 73.433 1221.29 65.6964 1226.99 59.9922C1232.7 54.2879 1240.43 51.0833 1248.5 51.0833C1265.23 51.0833 1278.92 63.25 1278.92 78.4583C1278.92 83.2985 1276.99 87.9405 1273.57 91.363C1270.15 94.7856 1265.51 96.7083 1260.67 96.7083H1255.19C1254.28 96.7083 1253.67 97.3167 1253.67 98.2292C1253.67 98.5333 1253.97 98.8375 1253.97 99.1417C1255.19 100.662 1255.8 102.487 1255.8 104.312C1256.1 108.571 1252.76 111.917 1248.5 111.917ZM1248.5 57.1667C1242.05 57.1667 1235.86 59.7303 1231.29 64.2937C1226.73 68.8571 1224.17 75.0464 1224.17 81.5C1224.17 87.9536 1226.73 94.1429 1231.29 98.7063C1235.86 103.27 1242.05 105.833 1248.5 105.833C1249.41 105.833 1250.02 105.225 1250.02 104.312C1250.02 103.704 1249.72 103.4 1249.72 103.096C1248.5 101.575 1247.89 100.054 1247.89 98.2292C1247.89 93.9708 1251.24 90.625 1255.5 90.625H1260.67C1263.89 90.625 1266.99 89.3432 1269.27 87.0615C1271.55 84.7798 1272.83 81.6851 1272.83 78.4583C1272.83 66.5958 1261.88 57.1667 1248.5 57.1667ZM1231.77 75.4167C1234.2 75.4167 1236.33 77.5458 1236.33 79.9792C1236.33 82.4125 1234.2 84.5417 1231.77 84.5417C1229.34 84.5417 1227.21 82.4125 1227.21 79.9792C1227.21 77.5458 1229.34 75.4167 1231.77 75.4167ZM1240.9 63.25C1243.33 63.25 1245.46 65.3792 1245.46 67.8125C1245.46 70.2458 1243.33 72.375 1240.9 72.375C1238.46 72.375 1236.33 70.2458 1236.33 67.8125C1236.33 65.3792 1238.46 63.25 1240.9 63.25ZM1256.1 63.25C1258.54 63.25 1260.67 65.3792 1260.67 67.8125C1260.67 70.2458 1258.54 72.375 1256.1 72.375C1253.67 72.375 1251.54 70.2458 1251.54 67.8125C1251.54 65.3792 1253.67 63.25 1256.1 63.25ZM1265.23 75.4167C1267.66 75.4167 1269.79 77.5458 1269.79 79.9792C1269.79 82.4125 1267.66 84.5417 1265.23 84.5417C1262.8 84.5417 1260.67 82.4125 1260.67 79.9792C1260.67 77.5458 1262.8 75.4167 1265.23 75.4167Z" fill="white"/>
</svg>
