<svg width="1363" height="163" viewBox="0 0 1363 163" fill="none" xmlns="http://www.w3.org/2000/svg">
<path d="M0 15C0 6.71573 6.71573 0 15 0H37V163H15C6.71573 163 0 156.284 0 148V15Z" fill="#424242"/>
<rect width="1097" height="163" transform="translate(37)" fill="#F0F0F0"/>
<path d="M101.906 53.9219L94.3945 51.2383V48.0859L104.602 52.375V54.6367L101.906 53.9219ZM94.3945 56.1719L101.918 53.4297L104.602 52.7852V55.0352L94.3945 59.3242V56.1719ZM119.543 54.918H115.195V52.1758H119.543C120.215 52.1758 120.762 52.0664 121.184 51.8477C121.605 51.6211 121.914 51.3086 122.109 50.9102C122.305 50.5117 122.402 50.0625 122.402 49.5625C122.402 49.0547 122.305 48.582 122.109 48.1445C121.914 47.707 121.605 47.3555 121.184 47.0898C120.762 46.8242 120.215 46.6914 119.543 46.6914H116.414V61H112.898V43.9375H119.543C120.879 43.9375 122.023 44.1797 122.977 44.6641C123.938 45.1406 124.672 45.8008 125.18 46.6445C125.688 47.4883 125.941 48.4531 125.941 49.5391C125.941 50.6406 125.688 51.5938 125.18 52.3984C124.672 53.2031 123.938 53.8242 122.977 54.2617C122.023 54.6992 120.879 54.918 119.543 54.918ZM127.453 54.7891V54.543C127.453 53.6133 127.586 52.7578 127.852 51.9766C128.117 51.1875 128.504 50.5039 129.012 49.9258C129.52 49.3477 130.145 48.8984 130.887 48.5781C131.629 48.25 132.48 48.0859 133.441 48.0859C134.402 48.0859 135.258 48.25 136.008 48.5781C136.758 48.8984 137.387 49.3477 137.895 49.9258C138.41 50.5039 138.801 51.1875 139.066 51.9766C139.332 52.7578 139.465 53.6133 139.465 54.543V54.7891C139.465 55.7109 139.332 56.5664 139.066 57.3555C138.801 58.1367 138.41 58.8203 137.895 59.4062C137.387 59.9844 136.762 60.4336 136.02 60.7539C135.277 61.0742 134.426 61.2344 133.465 61.2344C132.504 61.2344 131.648 61.0742 130.898 60.7539C130.156 60.4336 129.527 59.9844 129.012 59.4062C128.504 58.8203 128.117 58.1367 127.852 57.3555C127.586 56.5664 127.453 55.7109 127.453 54.7891ZM130.828 54.543V54.7891C130.828 55.3203 130.875 55.8164 130.969 56.2773C131.062 56.7383 131.211 57.1445 131.414 57.4961C131.625 57.8398 131.898 58.1094 132.234 58.3047C132.57 58.5 132.98 58.5977 133.465 58.5977C133.934 58.5977 134.336 58.5 134.672 58.3047C135.008 58.1094 135.277 57.8398 135.48 57.4961C135.684 57.1445 135.832 56.7383 135.926 56.2773C136.027 55.8164 136.078 55.3203 136.078 54.7891V54.543C136.078 54.0273 136.027 53.543 135.926 53.0898C135.832 52.6289 135.68 52.2227 135.469 51.8711C135.266 51.5117 134.996 51.2305 134.66 51.0273C134.324 50.8242 133.918 50.7227 133.441 50.7227C132.965 50.7227 132.559 50.8242 132.223 51.0273C131.895 51.2305 131.625 51.5117 131.414 51.8711C131.211 52.2227 131.062 52.6289 130.969 53.0898C130.875 53.543 130.828 54.0273 130.828 54.543ZM145.16 57.7188L147.797 48.3203H149.941L149.25 52.0117L146.613 61H144.82L145.16 57.7188ZM143.824 48.3203L145.711 57.707L145.887 61H143.777L140.566 48.3203H143.824ZM152.355 57.5547L154.195 48.3203H157.465L154.254 61H152.156L152.355 57.5547ZM150.234 48.3203L152.859 57.6484L153.223 61H151.418L148.781 52.0234L148.113 48.3203H150.234ZM165 61.2344C164.016 61.2344 163.133 61.0781 162.352 60.7656C161.57 60.4453 160.906 60.0039 160.359 59.4414C159.82 58.8789 159.406 58.2266 159.117 57.4844C158.828 56.7344 158.684 55.9375 158.684 55.0938V54.625C158.684 53.6641 158.82 52.7852 159.094 51.9883C159.367 51.1914 159.758 50.5 160.266 49.9141C160.781 49.3281 161.406 48.8789 162.141 48.5664C162.875 48.2461 163.703 48.0859 164.625 48.0859C165.523 48.0859 166.32 48.2344 167.016 48.5312C167.711 48.8281 168.293 49.25 168.762 49.7969C169.238 50.3438 169.598 51 169.84 51.7656C170.082 52.5234 170.203 53.3672 170.203 54.2969V55.7031H160.125V53.4531H166.887V53.1953C166.887 52.7266 166.801 52.3086 166.629 51.9414C166.465 51.5664 166.215 51.2695 165.879 51.0508C165.543 50.832 165.113 50.7227 164.59 50.7227C164.145 50.7227 163.762 50.8203 163.441 51.0156C163.121 51.2109 162.859 51.4844 162.656 51.8359C162.461 52.1875 162.312 52.6016 162.211 53.0781C162.117 53.5469 162.07 54.0625 162.07 54.625V55.0938C162.07 55.6016 162.141 56.0703 162.281 56.5C162.43 56.9297 162.637 57.3008 162.902 57.6133C163.176 57.9258 163.504 58.168 163.887 58.3398C164.277 58.5117 164.719 58.5977 165.211 58.5977C165.82 58.5977 166.387 58.4805 166.91 58.2461C167.441 58.0039 167.898 57.6406 168.281 57.1562L169.922 58.9375C169.656 59.3203 169.293 59.6875 168.832 60.0391C168.379 60.3906 167.832 60.6797 167.191 60.9062C166.551 61.125 165.82 61.2344 165 61.2344ZM175.5 51.0859V61H172.125V48.3203H175.301L175.5 51.0859ZM179.32 48.2383L179.262 51.3672C179.098 51.3438 178.898 51.3242 178.664 51.3086C178.438 51.2852 178.23 51.2734 178.043 51.2734C177.566 51.2734 177.152 51.3359 176.801 51.4609C176.457 51.5781 176.168 51.7539 175.934 51.9883C175.707 52.2227 175.535 52.5078 175.418 52.8438C175.309 53.1797 175.246 53.5625 175.23 53.9922L174.551 53.7812C174.551 52.9609 174.633 52.207 174.797 51.5195C174.961 50.8242 175.199 50.2188 175.512 49.7031C175.832 49.1875 176.223 48.7891 176.684 48.5078C177.145 48.2266 177.672 48.0859 178.266 48.0859C178.453 48.0859 178.645 48.1016 178.84 48.1328C179.035 48.1562 179.195 48.1914 179.32 48.2383ZM192.34 61H188.625L188.648 58.2578H192.34C193.262 58.2578 194.039 58.0508 194.672 57.6367C195.305 57.2148 195.781 56.6016 196.102 55.7969C196.43 54.9922 196.594 54.0195 196.594 52.8789V52.0469C196.594 51.1719 196.5 50.4023 196.312 49.7383C196.133 49.0742 195.863 48.5156 195.504 48.0625C195.145 47.6094 194.703 47.2695 194.18 47.043C193.656 46.8086 193.055 46.6914 192.375 46.6914H188.555V43.9375H192.375C193.516 43.9375 194.559 44.1328 195.504 44.5234C196.457 44.9062 197.281 45.457 197.977 46.1758C198.672 46.8945 199.207 47.7539 199.582 48.7539C199.965 49.7461 200.156 50.8516 200.156 52.0703V52.8789C200.156 54.0898 199.965 55.1953 199.582 56.1953C199.207 57.1953 198.672 58.0547 197.977 58.7734C197.289 59.4844 196.465 60.0352 195.504 60.4258C194.551 60.8086 193.496 61 192.34 61ZM190.617 43.9375V61H187.102V43.9375H190.617ZM201.961 54.7891V54.543C201.961 53.6133 202.094 52.7578 202.359 51.9766C202.625 51.1875 203.012 50.5039 203.52 49.9258C204.027 49.3477 204.652 48.8984 205.395 48.5781C206.137 48.25 206.988 48.0859 207.949 48.0859C208.91 48.0859 209.766 48.25 210.516 48.5781C211.266 48.8984 211.895 49.3477 212.402 49.9258C212.918 50.5039 213.309 51.1875 213.574 51.9766C213.84 52.7578 213.973 53.6133 213.973 54.543V54.7891C213.973 55.7109 213.84 56.5664 213.574 57.3555C213.309 58.1367 212.918 58.8203 212.402 59.4062C211.895 59.9844 211.27 60.4336 210.527 60.7539C209.785 61.0742 208.934 61.2344 207.973 61.2344C207.012 61.2344 206.156 61.0742 205.406 60.7539C204.664 60.4336 204.035 59.9844 203.52 59.4062C203.012 58.8203 202.625 58.1367 202.359 57.3555C202.094 56.5664 201.961 55.7109 201.961 54.7891ZM205.336 54.543V54.7891C205.336 55.3203 205.383 55.8164 205.477 56.2773C205.57 56.7383 205.719 57.1445 205.922 57.4961C206.133 57.8398 206.406 58.1094 206.742 58.3047C207.078 58.5 207.488 58.5977 207.973 58.5977C208.441 58.5977 208.844 58.5 209.18 58.3047C209.516 58.1094 209.785 57.8398 209.988 57.4961C210.191 57.1445 210.34 56.7383 210.434 56.2773C210.535 55.8164 210.586 55.3203 210.586 54.7891V54.543C210.586 54.0273 210.535 53.543 210.434 53.0898C210.34 52.6289 210.188 52.2227 209.977 51.8711C209.773 51.5117 209.504 51.2305 209.168 51.0273C208.832 50.8242 208.426 50.7227 207.949 50.7227C207.473 50.7227 207.066 50.8242 206.73 51.0273C206.402 51.2305 206.133 51.5117 205.922 51.8711C205.719 52.2227 205.57 52.6289 205.477 53.0898C205.383 53.543 205.336 54.0273 205.336 54.543ZM219.668 57.7188L222.305 48.3203H224.449L223.758 52.0117L221.121 61H219.328L219.668 57.7188ZM218.332 48.3203L220.219 57.707L220.395 61H218.285L215.074 48.3203H218.332ZM226.863 57.5547L228.703 48.3203H231.973L228.762 61H226.664L226.863 57.5547ZM224.742 48.3203L227.367 57.6484L227.73 61H225.926L223.289 52.0234L222.621 48.3203H224.742ZM236.977 51.0273V61H233.602V48.3203H236.766L236.977 51.0273ZM236.484 54.2148H235.57C235.57 53.2773 235.691 52.4336 235.934 51.6836C236.176 50.9258 236.516 50.2812 236.953 49.75C237.391 49.2109 237.91 48.8008 238.512 48.5195C239.121 48.2305 239.801 48.0859 240.551 48.0859C241.145 48.0859 241.688 48.1719 242.18 48.3438C242.672 48.5156 243.094 48.7891 243.445 49.1641C243.805 49.5391 244.078 50.0352 244.266 50.6523C244.461 51.2695 244.559 52.0234 244.559 52.9141V61H241.16V52.9023C241.16 52.3398 241.082 51.9023 240.926 51.5898C240.77 51.2773 240.539 51.0586 240.234 50.9336C239.938 50.8008 239.57 50.7344 239.133 50.7344C238.68 50.7344 238.285 50.8242 237.949 51.0039C237.621 51.1836 237.348 51.4336 237.129 51.7539C236.918 52.0664 236.758 52.4336 236.648 52.8555C236.539 53.2773 236.484 53.7305 236.484 54.2148Z" fill="#888888"/>
<path d="M118.594 98.4219V104.75H101.086V98.4219H118.594ZM103.828 84.875V119H95.6016V84.875H103.828ZM124.125 84.875V119H115.922V84.875H124.125ZM127.992 106.578V106.086C127.992 104.227 128.258 102.516 128.789 100.953C129.32 99.375 130.102 98.0078 131.133 96.8516C132.164 95.6953 133.438 94.7969 134.953 94.1562C136.469 93.5 138.219 93.1719 140.203 93.1719C142.203 93.1719 143.961 93.5 145.477 94.1562C147.008 94.7969 148.289 95.6953 149.32 96.8516C150.352 98.0078 151.133 99.375 151.664 100.953C152.195 102.516 152.461 104.227 152.461 106.086V106.578C152.461 108.422 152.195 110.133 151.664 111.711C151.133 113.273 150.352 114.641 149.32 115.812C148.289 116.969 147.016 117.867 145.5 118.508C143.984 119.148 142.234 119.469 140.25 119.469C138.266 119.469 136.508 119.148 134.977 118.508C133.445 117.867 132.164 116.969 131.133 115.812C130.102 114.641 129.32 113.273 128.789 111.711C128.258 110.133 127.992 108.422 127.992 106.578ZM135.891 106.086V106.578C135.891 107.531 135.961 108.422 136.102 109.25C136.242 110.078 136.477 110.805 136.805 111.43C137.133 112.039 137.578 112.516 138.141 112.859C138.703 113.203 139.406 113.375 140.25 113.375C141.078 113.375 141.766 113.203 142.312 112.859C142.875 112.516 143.32 112.039 143.648 111.43C143.977 110.805 144.211 110.078 144.352 109.25C144.492 108.422 144.562 107.531 144.562 106.578V106.086C144.562 105.164 144.492 104.297 144.352 103.484C144.211 102.656 143.977 101.93 143.648 101.305C143.32 100.664 142.875 100.164 142.312 99.8047C141.75 99.4453 141.047 99.2656 140.203 99.2656C139.375 99.2656 138.68 99.4453 138.117 99.8047C137.57 100.164 137.133 100.664 136.805 101.305C136.477 101.93 136.242 102.656 136.102 103.484C135.961 104.297 135.891 105.164 135.891 106.086ZM163.688 111.453L168.375 93.6406H173.32L171.562 102.57L166.922 119H162.961L163.688 111.453ZM161.836 93.6406L164.742 111.312L165.07 119H160.266L154.266 93.6406H161.836ZM177.492 110.938L180.422 93.6406H187.992L182.039 119H177.234L177.492 110.938ZM173.883 93.6406L178.617 111.406L179.344 119H175.336L170.789 102.617L169.102 93.6406H173.883ZM218.297 84.875V119H210.07V84.875H218.297ZM228.562 84.875V91.2266H200.039V84.875H228.562ZM225.773 106.578V106.086C225.773 104.227 226.039 102.516 226.57 100.953C227.102 99.375 227.883 98.0078 228.914 96.8516C229.945 95.6953 231.219 94.7969 232.734 94.1562C234.25 93.5 236 93.1719 237.984 93.1719C239.984 93.1719 241.742 93.5 243.258 94.1562C244.789 94.7969 246.07 95.6953 247.102 96.8516C248.133 98.0078 248.914 99.375 249.445 100.953C249.977 102.516 250.242 104.227 250.242 106.086V106.578C250.242 108.422 249.977 110.133 249.445 111.711C248.914 113.273 248.133 114.641 247.102 115.812C246.07 116.969 244.797 117.867 243.281 118.508C241.766 119.148 240.016 119.469 238.031 119.469C236.047 119.469 234.289 119.148 232.758 118.508C231.227 117.867 229.945 116.969 228.914 115.812C227.883 114.641 227.102 113.273 226.57 111.711C226.039 110.133 225.773 108.422 225.773 106.578ZM233.672 106.086V106.578C233.672 107.531 233.742 108.422 233.883 109.25C234.023 110.078 234.258 110.805 234.586 111.43C234.914 112.039 235.359 112.516 235.922 112.859C236.484 113.203 237.188 113.375 238.031 113.375C238.859 113.375 239.547 113.203 240.094 112.859C240.656 112.516 241.102 112.039 241.43 111.43C241.758 110.805 241.992 110.078 242.133 109.25C242.273 108.422 242.344 107.531 242.344 106.578V106.086C242.344 105.164 242.273 104.297 242.133 103.484C241.992 102.656 241.758 101.93 241.43 101.305C241.102 100.664 240.656 100.164 240.094 99.8047C239.531 99.4453 238.828 99.2656 237.984 99.2656C237.156 99.2656 236.461 99.4453 235.898 99.8047C235.352 100.164 234.914 100.664 234.586 101.305C234.258 101.93 234.023 102.656 233.883 103.484C233.742 104.297 233.672 105.164 233.672 106.086ZM266.086 84.875H279.516C282.141 84.875 284.422 85.2656 286.359 86.0469C288.297 86.8281 289.789 87.9844 290.836 89.5156C291.898 91.0469 292.43 92.9375 292.43 95.1875C292.43 97.1406 292.125 98.7734 291.516 100.086C290.906 101.398 290.055 102.484 288.961 103.344C287.883 104.188 286.625 104.883 285.188 105.43L282.492 106.953H271.219L271.172 100.602H279.516C280.562 100.602 281.43 100.414 282.117 100.039C282.805 99.6641 283.32 99.1328 283.664 98.4453C284.023 97.7422 284.203 96.9062 284.203 95.9375C284.203 94.9531 284.023 94.1094 283.664 93.4062C283.305 92.7031 282.773 92.1641 282.07 91.7891C281.383 91.4141 280.531 91.2266 279.516 91.2266H274.312V119H266.086V84.875ZM284.766 119L277.219 103.906L285.938 103.859L293.578 118.648V119H284.766ZM311.836 112.836V93.6406H319.758V119H312.352L311.836 112.836ZM312.586 107.68L314.648 107.633C314.648 109.336 314.445 110.914 314.039 112.367C313.633 113.805 313.031 115.055 312.234 116.117C311.453 117.18 310.484 118.008 309.328 118.602C308.188 119.18 306.867 119.469 305.367 119.469C304.117 119.469 302.969 119.297 301.922 118.953C300.891 118.594 300 118.039 299.25 117.289C298.5 116.523 297.914 115.547 297.492 114.359C297.086 113.156 296.883 111.719 296.883 110.047V93.6406H304.781V110.094C304.781 110.656 304.852 111.141 304.992 111.547C305.133 111.953 305.336 112.297 305.602 112.578C305.867 112.844 306.195 113.047 306.586 113.188C306.992 113.312 307.453 113.375 307.969 113.375C309.156 113.375 310.086 113.125 310.758 112.625C311.43 112.125 311.898 111.445 312.164 110.586C312.445 109.727 312.586 108.758 312.586 107.68ZM331.875 99.0547V119H323.977V93.6406H331.383L331.875 99.0547ZM330.938 105.453L329.086 105.5C329.086 103.562 329.32 101.836 329.789 100.32C330.258 98.7891 330.922 97.4922 331.781 96.4297C332.641 95.3672 333.664 94.5625 334.852 94.0156C336.055 93.4531 337.391 93.1719 338.859 93.1719C340.031 93.1719 341.102 93.3438 342.07 93.6875C343.055 94.0312 343.898 94.5859 344.602 95.3516C345.32 96.1172 345.867 97.1328 346.242 98.3984C346.633 99.6484 346.828 101.195 346.828 103.039V119H338.883V103.016C338.883 102 338.742 101.227 338.461 100.695C338.18 100.148 337.773 99.7734 337.242 99.5703C336.711 99.3672 336.062 99.2656 335.297 99.2656C334.484 99.2656 333.797 99.4219 333.234 99.7344C332.672 100.047 332.219 100.484 331.875 101.047C331.547 101.594 331.305 102.242 331.148 102.992C331.008 103.742 330.938 104.562 330.938 105.453ZM363.773 108.195H357.047C357.047 106.82 357.141 105.609 357.328 104.562C357.531 103.5 357.875 102.547 358.359 101.703C358.844 100.859 359.5 100.078 360.328 99.3594C361.062 98.75 361.695 98.1641 362.227 97.6016C362.758 97.0391 363.164 96.4688 363.445 95.8906C363.727 95.3125 363.867 94.6953 363.867 94.0391C363.867 93.2266 363.75 92.5625 363.516 92.0469C363.297 91.5312 362.961 91.1484 362.508 90.8984C362.07 90.6328 361.516 90.5 360.844 90.5C360.297 90.5 359.781 90.6328 359.297 90.8984C358.828 91.1641 358.445 91.5781 358.148 92.1406C357.852 92.6875 357.688 93.4141 357.656 94.3203H349.711C349.758 91.9922 350.273 90.1016 351.258 88.6484C352.258 87.1797 353.586 86.1094 355.242 85.4375C356.914 84.75 358.781 84.4062 360.844 84.4062C363.125 84.4062 365.086 84.7578 366.727 85.4609C368.367 86.1641 369.625 87.2109 370.5 88.6016C371.375 89.9766 371.812 91.6719 371.812 93.6875C371.812 95.0312 371.555 96.2031 371.039 97.2031C370.539 98.1875 369.859 99.1094 369 99.9688C368.156 100.812 367.211 101.719 366.164 102.688C365.258 103.484 364.641 104.297 364.312 105.125C363.984 105.938 363.805 106.961 363.773 108.195ZM356.086 115.32C356.086 114.195 356.492 113.258 357.305 112.508C358.117 111.742 359.172 111.359 360.469 111.359C361.766 111.359 362.82 111.742 363.633 112.508C364.445 113.258 364.852 114.195 364.852 115.32C364.852 116.445 364.445 117.391 363.633 118.156C362.82 118.906 361.766 119.281 360.469 119.281C359.172 119.281 358.117 118.906 357.305 118.156C356.492 117.391 356.086 116.445 356.086 115.32Z" fill="black"/>
<path d="M1134 0H1348C1356.28 0 1363 6.71573 1363 15V148C1363 156.284 1356.28 163 1348 163H1134V0Z" fill="#0D5254"/>
<path d="M1260.62 78.8847C1263.81 78.8847 1266.93 79.805 1269.59 81.5293C1272.25 83.2536 1274.32 85.7044 1275.54 88.5718C1276.76 91.4391 1277.08 94.5943 1276.46 97.6383C1275.84 100.682 1274.3 103.478 1272.04 105.673C1269.78 107.868 1266.9 109.362 1263.77 109.968C1260.63 110.573 1257.39 110.262 1254.43 109.075C1251.48 107.887 1248.96 105.876 1247.18 103.295C1245.41 100.714 1244.46 97.6806 1244.46 94.5769C1244.46 90.4151 1246.16 86.4237 1249.19 83.4808C1252.22 80.538 1256.33 78.8847 1260.62 78.8847ZM1260.62 73.6539C1256.36 73.6539 1252.19 74.881 1248.65 77.1801C1245.11 79.4791 1242.35 82.7469 1240.72 86.57C1239.09 90.3932 1238.66 94.6001 1239.49 98.6588C1240.32 102.717 1242.37 106.446 1245.39 109.372C1248.4 112.298 1252.24 114.291 1256.41 115.098C1260.59 115.905 1264.92 115.491 1268.86 113.907C1272.79 112.324 1276.16 109.642 1278.52 106.201C1280.89 102.76 1282.15 98.7151 1282.15 94.5769C1282.15 89.0278 1279.88 83.706 1275.85 79.7821C1271.81 75.8583 1266.33 73.6539 1260.62 73.6539Z" fill="white"/>
<path d="M1274.08 47.5H1220.23C1218.8 47.5 1217.43 48.0511 1216.42 49.0321C1215.41 50.013 1214.85 51.3435 1214.85 52.7307V105.038C1214.85 106.426 1215.41 107.756 1216.42 108.737C1217.43 109.718 1218.8 110.269 1220.23 110.269H1231V105.038H1220.23V68.423H1279.46V52.7307C1279.46 51.3435 1278.89 50.013 1277.88 49.0321C1276.87 48.0511 1275.5 47.5 1274.08 47.5ZM1220.23 63.1922V52.7307H1274.08V63.1922H1220.23Z" fill="white"/>
<path d="M1255.23 86.731V102.423L1268.69 94.5771L1255.23 86.731Z" fill="white"/>
</svg>
