<svg width="1363" height="163" viewBox="0 0 1363 163" fill="none" xmlns="http://www.w3.org/2000/svg">
<path d="M0 15C0 6.71573 6.71573 0 15 0H37V163H15C6.71573 163 0 156.284 0 148V15Z" fill="#424242"/>
<rect width="1097" height="163" transform="translate(37)" fill="#F0F0F0"/>
<path d="M101.906 53.9219L94.3945 51.2383V48.0859L104.602 52.375V54.6367L101.906 53.9219ZM94.3945 56.1719L101.918 53.4297L104.602 52.7852V55.0352L94.3945 59.3242V56.1719ZM119.543 54.918H115.195V52.1758H119.543C120.215 52.1758 120.762 52.0664 121.184 51.8477C121.605 51.6211 121.914 51.3086 122.109 50.9102C122.305 50.5117 122.402 50.0625 122.402 49.5625C122.402 49.0547 122.305 48.582 122.109 48.1445C121.914 47.707 121.605 47.3555 121.184 47.0898C120.762 46.8242 120.215 46.6914 119.543 46.6914H116.414V61H112.898V43.9375H119.543C120.879 43.9375 122.023 44.1797 122.977 44.6641C123.938 45.1406 124.672 45.8008 125.18 46.6445C125.688 47.4883 125.941 48.4531 125.941 49.5391C125.941 50.6406 125.688 51.5938 125.18 52.3984C124.672 53.2031 123.938 53.8242 122.977 54.2617C122.023 54.6992 120.879 54.918 119.543 54.918ZM127.453 54.7891V54.543C127.453 53.6133 127.586 52.7578 127.852 51.9766C128.117 51.1875 128.504 50.5039 129.012 49.9258C129.52 49.3477 130.145 48.8984 130.887 48.5781C131.629 48.25 132.48 48.0859 133.441 48.0859C134.402 48.0859 135.258 48.25 136.008 48.5781C136.758 48.8984 137.387 49.3477 137.895 49.9258C138.41 50.5039 138.801 51.1875 139.066 51.9766C139.332 52.7578 139.465 53.6133 139.465 54.543V54.7891C139.465 55.7109 139.332 56.5664 139.066 57.3555C138.801 58.1367 138.41 58.8203 137.895 59.4062C137.387 59.9844 136.762 60.4336 136.02 60.7539C135.277 61.0742 134.426 61.2344 133.465 61.2344C132.504 61.2344 131.648 61.0742 130.898 60.7539C130.156 60.4336 129.527 59.9844 129.012 59.4062C128.504 58.8203 128.117 58.1367 127.852 57.3555C127.586 56.5664 127.453 55.7109 127.453 54.7891ZM130.828 54.543V54.7891C130.828 55.3203 130.875 55.8164 130.969 56.2773C131.062 56.7383 131.211 57.1445 131.414 57.4961C131.625 57.8398 131.898 58.1094 132.234 58.3047C132.57 58.5 132.98 58.5977 133.465 58.5977C133.934 58.5977 134.336 58.5 134.672 58.3047C135.008 58.1094 135.277 57.8398 135.48 57.4961C135.684 57.1445 135.832 56.7383 135.926 56.2773C136.027 55.8164 136.078 55.3203 136.078 54.7891V54.543C136.078 54.0273 136.027 53.543 135.926 53.0898C135.832 52.6289 135.68 52.2227 135.469 51.8711C135.266 51.5117 134.996 51.2305 134.66 51.0273C134.324 50.8242 133.918 50.7227 133.441 50.7227C132.965 50.7227 132.559 50.8242 132.223 51.0273C131.895 51.2305 131.625 51.5117 131.414 51.8711C131.211 52.2227 131.062 52.6289 130.969 53.0898C130.875 53.543 130.828 54.0273 130.828 54.543ZM145.16 57.7188L147.797 48.3203H149.941L149.25 52.0117L146.613 61H144.82L145.16 57.7188ZM143.824 48.3203L145.711 57.707L145.887 61H143.777L140.566 48.3203H143.824ZM152.355 57.5547L154.195 48.3203H157.465L154.254 61H152.156L152.355 57.5547ZM150.234 48.3203L152.859 57.6484L153.223 61H151.418L148.781 52.0234L148.113 48.3203H150.234ZM165 61.2344C164.016 61.2344 163.133 61.0781 162.352 60.7656C161.57 60.4453 160.906 60.0039 160.359 59.4414C159.82 58.8789 159.406 58.2266 159.117 57.4844C158.828 56.7344 158.684 55.9375 158.684 55.0938V54.625C158.684 53.6641 158.82 52.7852 159.094 51.9883C159.367 51.1914 159.758 50.5 160.266 49.9141C160.781 49.3281 161.406 48.8789 162.141 48.5664C162.875 48.2461 163.703 48.0859 164.625 48.0859C165.523 48.0859 166.32 48.2344 167.016 48.5312C167.711 48.8281 168.293 49.25 168.762 49.7969C169.238 50.3438 169.598 51 169.84 51.7656C170.082 52.5234 170.203 53.3672 170.203 54.2969V55.7031H160.125V53.4531H166.887V53.1953C166.887 52.7266 166.801 52.3086 166.629 51.9414C166.465 51.5664 166.215 51.2695 165.879 51.0508C165.543 50.832 165.113 50.7227 164.59 50.7227C164.145 50.7227 163.762 50.8203 163.441 51.0156C163.121 51.2109 162.859 51.4844 162.656 51.8359C162.461 52.1875 162.312 52.6016 162.211 53.0781C162.117 53.5469 162.07 54.0625 162.07 54.625V55.0938C162.07 55.6016 162.141 56.0703 162.281 56.5C162.43 56.9297 162.637 57.3008 162.902 57.6133C163.176 57.9258 163.504 58.168 163.887 58.3398C164.277 58.5117 164.719 58.5977 165.211 58.5977C165.82 58.5977 166.387 58.4805 166.91 58.2461C167.441 58.0039 167.898 57.6406 168.281 57.1562L169.922 58.9375C169.656 59.3203 169.293 59.6875 168.832 60.0391C168.379 60.3906 167.832 60.6797 167.191 60.9062C166.551 61.125 165.82 61.2344 165 61.2344ZM175.5 51.0859V61H172.125V48.3203H175.301L175.5 51.0859ZM179.32 48.2383L179.262 51.3672C179.098 51.3438 178.898 51.3242 178.664 51.3086C178.438 51.2852 178.23 51.2734 178.043 51.2734C177.566 51.2734 177.152 51.3359 176.801 51.4609C176.457 51.5781 176.168 51.7539 175.934 51.9883C175.707 52.2227 175.535 52.5078 175.418 52.8438C175.309 53.1797 175.246 53.5625 175.23 53.9922L174.551 53.7812C174.551 52.9609 174.633 52.207 174.797 51.5195C174.961 50.8242 175.199 50.2188 175.512 49.7031C175.832 49.1875 176.223 48.7891 176.684 48.5078C177.145 48.2266 177.672 48.0859 178.266 48.0859C178.453 48.0859 178.645 48.1016 178.84 48.1328C179.035 48.1562 179.195 48.1914 179.32 48.2383ZM192.34 61H188.625L188.648 58.2578H192.34C193.262 58.2578 194.039 58.0508 194.672 57.6367C195.305 57.2148 195.781 56.6016 196.102 55.7969C196.43 54.9922 196.594 54.0195 196.594 52.8789V52.0469C196.594 51.1719 196.5 50.4023 196.312 49.7383C196.133 49.0742 195.863 48.5156 195.504 48.0625C195.145 47.6094 194.703 47.2695 194.18 47.043C193.656 46.8086 193.055 46.6914 192.375 46.6914H188.555V43.9375H192.375C193.516 43.9375 194.559 44.1328 195.504 44.5234C196.457 44.9062 197.281 45.457 197.977 46.1758C198.672 46.8945 199.207 47.7539 199.582 48.7539C199.965 49.7461 200.156 50.8516 200.156 52.0703V52.8789C200.156 54.0898 199.965 55.1953 199.582 56.1953C199.207 57.1953 198.672 58.0547 197.977 58.7734C197.289 59.4844 196.465 60.0352 195.504 60.4258C194.551 60.8086 193.496 61 192.34 61ZM190.617 43.9375V61H187.102V43.9375H190.617ZM201.961 54.7891V54.543C201.961 53.6133 202.094 52.7578 202.359 51.9766C202.625 51.1875 203.012 50.5039 203.52 49.9258C204.027 49.3477 204.652 48.8984 205.395 48.5781C206.137 48.25 206.988 48.0859 207.949 48.0859C208.91 48.0859 209.766 48.25 210.516 48.5781C211.266 48.8984 211.895 49.3477 212.402 49.9258C212.918 50.5039 213.309 51.1875 213.574 51.9766C213.84 52.7578 213.973 53.6133 213.973 54.543V54.7891C213.973 55.7109 213.84 56.5664 213.574 57.3555C213.309 58.1367 212.918 58.8203 212.402 59.4062C211.895 59.9844 211.27 60.4336 210.527 60.7539C209.785 61.0742 208.934 61.2344 207.973 61.2344C207.012 61.2344 206.156 61.0742 205.406 60.7539C204.664 60.4336 204.035 59.9844 203.52 59.4062C203.012 58.8203 202.625 58.1367 202.359 57.3555C202.094 56.5664 201.961 55.7109 201.961 54.7891ZM205.336 54.543V54.7891C205.336 55.3203 205.383 55.8164 205.477 56.2773C205.57 56.7383 205.719 57.1445 205.922 57.4961C206.133 57.8398 206.406 58.1094 206.742 58.3047C207.078 58.5 207.488 58.5977 207.973 58.5977C208.441 58.5977 208.844 58.5 209.18 58.3047C209.516 58.1094 209.785 57.8398 209.988 57.4961C210.191 57.1445 210.34 56.7383 210.434 56.2773C210.535 55.8164 210.586 55.3203 210.586 54.7891V54.543C210.586 54.0273 210.535 53.543 210.434 53.0898C210.34 52.6289 210.188 52.2227 209.977 51.8711C209.773 51.5117 209.504 51.2305 209.168 51.0273C208.832 50.8242 208.426 50.7227 207.949 50.7227C207.473 50.7227 207.066 50.8242 206.73 51.0273C206.402 51.2305 206.133 51.5117 205.922 51.8711C205.719 52.2227 205.57 52.6289 205.477 53.0898C205.383 53.543 205.336 54.0273 205.336 54.543ZM219.668 57.7188L222.305 48.3203H224.449L223.758 52.0117L221.121 61H219.328L219.668 57.7188ZM218.332 48.3203L220.219 57.707L220.395 61H218.285L215.074 48.3203H218.332ZM226.863 57.5547L228.703 48.3203H231.973L228.762 61H226.664L226.863 57.5547ZM224.742 48.3203L227.367 57.6484L227.73 61H225.926L223.289 52.0234L222.621 48.3203H224.742ZM236.977 51.0273V61H233.602V48.3203H236.766L236.977 51.0273ZM236.484 54.2148H235.57C235.57 53.2773 235.691 52.4336 235.934 51.6836C236.176 50.9258 236.516 50.2812 236.953 49.75C237.391 49.2109 237.91 48.8008 238.512 48.5195C239.121 48.2305 239.801 48.0859 240.551 48.0859C241.145 48.0859 241.688 48.1719 242.18 48.3438C242.672 48.5156 243.094 48.7891 243.445 49.1641C243.805 49.5391 244.078 50.0352 244.266 50.6523C244.461 51.2695 244.559 52.0234 244.559 52.9141V61H241.16V52.9023C241.16 52.3398 241.082 51.9023 240.926 51.5898C240.77 51.2773 240.539 51.0586 240.234 50.9336C239.938 50.8008 239.57 50.7344 239.133 50.7344C238.68 50.7344 238.285 50.8242 237.949 51.0039C237.621 51.1836 237.348 51.4336 237.129 51.7539C236.918 52.0664 236.758 52.4336 236.648 52.8555C236.539 53.2773 236.484 53.7305 236.484 54.2148Z" fill="#888888"/>
<path d="M114.117 84.875H122.344V107.164C122.344 109.82 121.789 112.07 120.68 113.914C119.57 115.742 118.016 117.125 116.016 118.062C114.016 119 111.664 119.469 108.961 119.469C106.289 119.469 103.938 119 101.906 118.062C99.8906 117.125 98.3125 115.742 97.1719 113.914C96.0469 112.07 95.4844 109.82 95.4844 107.164V84.875H103.734V107.164C103.734 108.57 103.938 109.719 104.344 110.609C104.75 111.484 105.344 112.125 106.125 112.531C106.906 112.938 107.852 113.141 108.961 113.141C110.086 113.141 111.031 112.938 111.797 112.531C112.562 112.125 113.141 111.484 113.531 110.609C113.922 109.719 114.117 108.57 114.117 107.164V84.875ZM134.906 99.0547V119H127.008V93.6406H134.414L134.906 99.0547ZM133.969 105.453L132.117 105.5C132.117 103.562 132.352 101.836 132.82 100.32C133.289 98.7891 133.953 97.4922 134.812 96.4297C135.672 95.3672 136.695 94.5625 137.883 94.0156C139.086 93.4531 140.422 93.1719 141.891 93.1719C143.062 93.1719 144.133 93.3438 145.102 93.6875C146.086 94.0312 146.93 94.5859 147.633 95.3516C148.352 96.1172 148.898 97.1328 149.273 98.3984C149.664 99.6484 149.859 101.195 149.859 103.039V119H141.914V103.016C141.914 102 141.773 101.227 141.492 100.695C141.211 100.148 140.805 99.7734 140.273 99.5703C139.742 99.3672 139.094 99.2656 138.328 99.2656C137.516 99.2656 136.828 99.4219 136.266 99.7344C135.703 100.047 135.25 100.484 134.906 101.047C134.578 101.594 134.336 102.242 134.18 102.992C134.039 103.742 133.969 104.562 133.969 105.453ZM162.586 93.6406V119H154.664V93.6406H162.586ZM154.195 87.1016C154.195 85.9766 154.602 85.0547 155.414 84.3359C156.227 83.6172 157.281 83.2578 158.578 83.2578C159.875 83.2578 160.93 83.6172 161.742 84.3359C162.555 85.0547 162.961 85.9766 162.961 87.1016C162.961 88.2266 162.555 89.1484 161.742 89.8672C160.93 90.5859 159.875 90.9453 158.578 90.9453C157.281 90.9453 156.227 90.5859 155.414 89.8672C154.602 89.1484 154.195 88.2266 154.195 87.1016ZM180.82 93.6406V99.125H165.539V93.6406H180.82ZM168.75 87.3359H176.648V110.727C176.648 111.398 176.727 111.922 176.883 112.297C177.039 112.656 177.305 112.914 177.68 113.07C178.07 113.211 178.586 113.281 179.227 113.281C179.68 113.281 180.055 113.273 180.352 113.258C180.648 113.227 180.93 113.188 181.195 113.141V118.789C180.523 119.008 179.82 119.172 179.086 119.281C178.352 119.406 177.57 119.469 176.742 119.469C175.055 119.469 173.609 119.203 172.406 118.672C171.219 118.141 170.312 117.305 169.688 116.164C169.062 115.023 168.75 113.539 168.75 111.711V87.3359ZM211.406 84.875V119H203.18V84.875H211.406ZM221.672 84.875V91.2266H193.148V84.875H221.672ZM234.961 119.469C232.898 119.469 231.055 119.148 229.43 118.508C227.805 117.852 226.43 116.953 225.305 115.812C224.195 114.672 223.344 113.359 222.75 111.875C222.172 110.391 221.883 108.82 221.883 107.164V106.273C221.883 104.414 222.141 102.695 222.656 101.117C223.172 99.5234 223.938 98.1328 224.953 96.9453C225.969 95.7578 227.242 94.8359 228.773 94.1797C230.305 93.5078 232.086 93.1719 234.117 93.1719C235.914 93.1719 237.523 93.4609 238.945 94.0391C240.367 94.6172 241.57 95.4453 242.555 96.5234C243.555 97.6016 244.312 98.9062 244.828 100.438C245.359 101.969 245.625 103.688 245.625 105.594V108.805H224.906V103.859H237.914V103.25C237.93 102.406 237.781 101.688 237.469 101.094C237.172 100.5 236.734 100.047 236.156 99.7344C235.578 99.4219 234.875 99.2656 234.047 99.2656C233.188 99.2656 232.477 99.4531 231.914 99.8281C231.367 100.203 230.938 100.719 230.625 101.375C230.328 102.016 230.117 102.758 229.992 103.602C229.867 104.445 229.805 105.336 229.805 106.273V107.164C229.805 108.102 229.93 108.953 230.18 109.719C230.445 110.484 230.82 111.141 231.305 111.688C231.805 112.219 232.398 112.633 233.086 112.93C233.789 113.227 234.586 113.375 235.477 113.375C236.555 113.375 237.617 113.172 238.664 112.766C239.711 112.359 240.609 111.688 241.359 110.75L244.945 115.016C244.43 115.75 243.695 116.461 242.742 117.148C241.805 117.836 240.68 118.398 239.367 118.836C238.055 119.258 236.586 119.469 234.961 119.469ZM262.125 111.875C262.125 111.438 261.977 111.062 261.68 110.75C261.398 110.422 260.898 110.125 260.18 109.859C259.461 109.578 258.453 109.297 257.156 109.016C255.922 108.75 254.758 108.398 253.664 107.961C252.586 107.523 251.641 106.992 250.828 106.367C250.016 105.742 249.375 105 248.906 104.141C248.453 103.281 248.227 102.297 248.227 101.188C248.227 100.109 248.453 99.0938 248.906 98.1406C249.375 97.1719 250.055 96.3203 250.945 95.5859C251.852 94.8359 252.953 94.25 254.25 93.8281C255.547 93.3906 257.023 93.1719 258.68 93.1719C260.961 93.1719 262.93 93.5234 264.586 94.2266C266.242 94.9141 267.516 95.8828 268.406 97.1328C269.312 98.3672 269.766 99.7969 269.766 101.422H261.867C261.867 100.781 261.758 100.234 261.539 99.7812C261.336 99.3281 261 98.9844 260.531 98.75C260.062 98.5 259.438 98.375 258.656 98.375C258.109 98.375 257.609 98.4766 257.156 98.6797C256.719 98.8828 256.367 99.1641 256.102 99.5234C255.836 99.8828 255.703 100.305 255.703 100.789C255.703 101.133 255.781 101.445 255.938 101.727C256.109 101.992 256.367 102.242 256.711 102.477C257.055 102.695 257.492 102.898 258.023 103.086C258.555 103.258 259.195 103.414 259.945 103.555C261.648 103.867 263.242 104.312 264.727 104.891C266.211 105.469 267.414 106.289 268.336 107.352C269.273 108.414 269.742 109.844 269.742 111.641C269.742 112.766 269.484 113.805 268.969 114.758C268.453 115.695 267.711 116.523 266.742 117.242C265.773 117.945 264.609 118.492 263.25 118.883C261.891 119.273 260.359 119.469 258.656 119.469C256.234 119.469 254.188 119.039 252.516 118.18C250.844 117.305 249.578 116.211 248.719 114.898C247.875 113.57 247.453 112.227 247.453 110.867H254.812C254.844 111.648 255.031 112.289 255.375 112.789C255.734 113.289 256.211 113.656 256.805 113.891C257.398 114.125 258.086 114.242 258.867 114.242C259.586 114.242 260.18 114.141 260.648 113.938C261.133 113.734 261.5 113.461 261.75 113.117C262 112.758 262.125 112.344 262.125 111.875ZM286.805 93.6406V99.125H271.523V93.6406H286.805ZM274.734 87.3359H282.633V110.727C282.633 111.398 282.711 111.922 282.867 112.297C283.023 112.656 283.289 112.914 283.664 113.07C284.055 113.211 284.57 113.281 285.211 113.281C285.664 113.281 286.039 113.273 286.336 113.258C286.633 113.227 286.914 113.188 287.18 113.141V118.789C286.508 119.008 285.805 119.172 285.07 119.281C284.336 119.406 283.555 119.469 282.727 119.469C281.039 119.469 279.594 119.203 278.391 118.672C277.203 118.141 276.297 117.305 275.672 116.164C275.047 115.023 274.734 113.539 274.734 111.711V87.3359ZM298.289 93.6406V119H290.367V93.6406H298.289ZM289.898 87.1016C289.898 85.9766 290.305 85.0547 291.117 84.3359C291.93 83.6172 292.984 83.2578 294.281 83.2578C295.578 83.2578 296.633 83.6172 297.445 84.3359C298.258 85.0547 298.664 85.9766 298.664 87.1016C298.664 88.2266 298.258 89.1484 297.445 89.8672C296.633 90.5859 295.578 90.9453 294.281 90.9453C292.984 90.9453 291.93 90.5859 291.117 89.8672C290.305 89.1484 289.898 88.2266 289.898 87.1016ZM310.922 99.0547V119H303.023V93.6406H310.43L310.922 99.0547ZM309.984 105.453L308.133 105.5C308.133 103.562 308.367 101.836 308.836 100.32C309.305 98.7891 309.969 97.4922 310.828 96.4297C311.688 95.3672 312.711 94.5625 313.898 94.0156C315.102 93.4531 316.438 93.1719 317.906 93.1719C319.078 93.1719 320.148 93.3438 321.117 93.6875C322.102 94.0312 322.945 94.5859 323.648 95.3516C324.367 96.1172 324.914 97.1328 325.289 98.3984C325.68 99.6484 325.875 101.195 325.875 103.039V119H317.93V103.016C317.93 102 317.789 101.227 317.508 100.695C317.227 100.148 316.82 99.7734 316.289 99.5703C315.758 99.3672 315.109 99.2656 314.344 99.2656C313.531 99.2656 312.844 99.4219 312.281 99.7344C311.719 100.047 311.266 100.484 310.922 101.047C310.594 101.594 310.352 102.242 310.195 102.992C310.055 103.742 309.984 104.562 309.984 105.453ZM346.195 93.6406H353.367V118.016C353.367 120.359 352.828 122.344 351.75 123.969C350.672 125.609 349.164 126.852 347.227 127.695C345.305 128.555 343.055 128.984 340.477 128.984C339.336 128.984 338.172 128.836 336.984 128.539C335.797 128.258 334.688 127.836 333.656 127.273C332.625 126.711 331.758 126.016 331.055 125.188L334.359 120.547C335 121.266 335.805 121.875 336.773 122.375C337.742 122.891 338.883 123.148 340.195 123.148C341.336 123.148 342.289 122.945 343.055 122.539C343.836 122.133 344.43 121.539 344.836 120.758C345.242 119.992 345.445 119.062 345.445 117.969V99.6406L346.195 93.6406ZM329.344 106.625V106.133C329.344 104.211 329.578 102.461 330.047 100.883C330.531 99.2891 331.219 97.9219 332.109 96.7812C333.016 95.625 334.109 94.7344 335.391 94.1094C336.672 93.4844 338.117 93.1719 339.727 93.1719C341.461 93.1719 342.883 93.5078 343.992 94.1797C345.117 94.8359 346.016 95.7578 346.688 96.9453C347.375 98.1328 347.906 99.5234 348.281 101.117C348.672 102.695 349 104.398 349.266 106.227V106.812C349 108.531 348.633 110.156 348.164 111.688C347.711 113.203 347.117 114.547 346.383 115.719C345.648 116.891 344.727 117.812 343.617 118.484C342.523 119.141 341.211 119.469 339.68 119.469C338.086 119.469 336.648 119.148 335.367 118.508C334.102 117.867 333.016 116.969 332.109 115.812C331.219 114.656 330.531 113.297 330.047 111.734C329.578 110.172 329.344 108.469 329.344 106.625ZM337.242 106.133V106.625C337.242 107.578 337.328 108.461 337.5 109.273C337.688 110.086 337.969 110.805 338.344 111.43C338.719 112.039 339.18 112.516 339.727 112.859C340.289 113.203 340.945 113.375 341.695 113.375C342.836 113.375 343.758 113.133 344.461 112.648C345.164 112.164 345.672 111.477 345.984 110.586C346.297 109.695 346.43 108.648 346.383 107.445V105.594C346.414 104.562 346.344 103.656 346.172 102.875C346 102.078 345.727 101.414 345.352 100.883C344.992 100.352 344.508 99.9531 343.898 99.6875C343.305 99.4062 342.586 99.2656 341.742 99.2656C341.008 99.2656 340.359 99.4375 339.797 99.7812C339.234 100.125 338.766 100.609 338.391 101.234C338.016 101.844 337.727 102.57 337.523 103.414C337.336 104.242 337.242 105.148 337.242 106.133Z" fill="black"/>
<path d="M1134 0H1348C1356.28 0 1363 6.71573 1363 15V148C1363 156.284 1356.28 163 1348 163H1134V0Z" fill="#0D5254"/>
<path d="M1210.62 43.625H1286.38V119.375H1210.62V43.625Z" fill="white" fill-opacity="0.01"/>
<path d="M1276.91 72.0312V105.172C1276.91 107.787 1274.79 109.906 1272.17 109.906H1224.83C1222.21 109.906 1220.09 107.787 1220.09 105.172V57.8281C1220.09 55.2134 1222.21 53.0938 1224.83 53.0938H1261.12" stroke="white" stroke-width="7.24" stroke-linecap="round" stroke-linejoin="round"/>
<path d="M1232.72 75.1875L1248.5 87.8125L1276.91 53.0938" stroke="white" stroke-width="7.24" stroke-linecap="round" stroke-linejoin="round"/>
</svg>
